<svg xmlns="http://www.w3.org/2000/svg" xmlns:xlink="http://www.w3.org/1999/xlink" width="250" zoomAndPan="magnify" viewBox="0 0 187.5 187.499992" height="250" preserveAspectRatio="xMidYMid meet" version="1.0"><defs><g/><clipPath id="0e9a9616d3"><path d="M 56.414062 79 L 94 79 L 94 121.179688 L 56.414062 121.179688 Z M 56.414062 79 " clip-rule="nonzero"/></clipPath><clipPath id="ac046b4cd2"><path d="M 93 79 L 131.203125 79 L 131.203125 121.179688 L 93 121.179688 Z M 93 79 " clip-rule="nonzero"/></clipPath><clipPath id="c217b7a155"><path d="M 98 47.617188 L 103 47.617188 L 103 52 L 98 52 Z M 98 47.617188 " clip-rule="nonzero"/></clipPath><clipPath id="47e32211c5"><path d="M 34 25 L 151.5 25 L 151.5 147 L 34 147 Z M 34 25 " clip-rule="nonzero"/></clipPath></defs><g clip-path="url(#0e9a9616d3)"><path fill="#3871c1" d="M 72.003906 111.691406 C 74.1875 110.425781 75.699219 109.804688 77.652344 109.21875 C 79.539062 108.65625 83.941406 108.90625 83.859375 108.039062 C 83.792969 107.351562 81.414062 106.996094 77.417969 107.566406 C 74.292969 108.015625 85.507812 103.964844 85 102.8125 C 84.5 101.679688 76.820312 105.667969 76.28125 105.386719 C 75.367188 104.910156 83.945312 99.28125 83.4375 98.449219 C 82.738281 97.300781 75.304688 103.492188 74.652344 103.453125 C 74 103.417969 80.664062 97.734375 79.933594 96.949219 C 78.929688 95.875 75.195312 100.511719 73.175781 102.300781 C 71.160156 104.089844 69.871094 102.429688 70.683594 98.988281 C 71.257812 96.550781 69.207031 94.578125 68.464844 99.085938 C 68.230469 100.507812 67.796875 101.875 67.511719 104.5625 C 67.183594 107.726562 66.53125 109.117188 63.066406 113.152344 L 56.417969 79.71875 C 77.363281 77.628906 93.8125 88.585938 93.8125 88.585938 L 93.8125 121.167969 C 85.074219 114.511719 75.460938 114.019531 68.851562 114.8125 C 70.332031 113.171875 71.492188 111.988281 72.003906 111.691406 " fill-opacity="1" fill-rule="nonzero"/></g><g clip-path="url(#ac046b4cd2)"><path fill="#51ade5" d="M 115.621094 111.691406 C 113.4375 110.425781 111.929688 109.804688 109.972656 109.21875 C 108.085938 108.65625 103.683594 108.90625 103.765625 108.039062 C 103.832031 107.351562 106.210938 106.996094 110.207031 107.566406 C 113.332031 108.015625 102.117188 103.964844 102.625 102.8125 C 103.128906 101.679688 110.804688 105.667969 111.34375 105.386719 C 112.257812 104.910156 103.679688 99.28125 104.1875 98.449219 C 104.886719 97.300781 112.324219 103.492188 112.972656 103.453125 C 113.625 103.417969 106.960938 97.734375 107.695312 96.949219 C 108.695312 95.875 112.429688 100.511719 114.449219 102.300781 C 116.464844 104.089844 117.753906 102.429688 116.941406 98.988281 C 116.367188 96.550781 118.421875 94.578125 119.160156 99.085938 C 119.394531 100.507812 119.832031 101.875 120.113281 104.5625 C 120.445312 107.726562 121.09375 109.117188 124.558594 113.152344 L 131.207031 79.71875 C 110.261719 77.628906 93.8125 88.589844 93.8125 88.589844 L 93.8125 121.167969 C 102.554688 114.511719 112.164062 114.019531 118.773438 114.8125 C 117.292969 113.171875 116.132812 111.988281 115.621094 111.691406 " fill-opacity="1" fill-rule="nonzero"/></g><path fill="#3871c1" d="M 95.320312 82.738281 L 92.304688 82.738281 L 92.304688 79.71875 L 95.320312 79.71875 L 95.320312 82.738281 " fill-opacity="1" fill-rule="nonzero"/><path fill="#3871c1" d="M 86.648438 73.863281 L 83.636719 73.863281 L 83.636719 70.84375 L 86.648438 70.84375 L 86.648438 73.863281 " fill-opacity="1" fill-rule="nonzero"/><path fill="#3871c1" d="M 100.335938 78.332031 L 96.703125 78.332031 L 96.703125 74.691406 L 100.335938 74.691406 L 100.335938 78.332031 " fill-opacity="1" fill-rule="nonzero"/><path fill="#3871c1" d="M 110.265625 74.304688 L 106.632812 74.304688 L 106.632812 70.667969 L 110.265625 70.667969 L 110.265625 74.304688 " fill-opacity="1" fill-rule="nonzero"/><path fill="#3871c1" d="M 94.121094 63.914062 L 90.492188 63.914062 L 90.492188 60.277344 L 94.121094 60.277344 L 94.121094 63.914062 " fill-opacity="1" fill-rule="nonzero"/><g clip-path="url(#c217b7a155)"><path fill="#3871c1" d="M 102.152344 51.269531 L 98.519531 51.269531 L 98.519531 47.628906 L 102.152344 47.628906 L 102.152344 51.269531 " fill-opacity="1" fill-rule="nonzero"/></g><path fill="#51ade5" d="M 84.09375 68.253906 L 80.460938 68.253906 L 80.460938 64.613281 L 84.09375 64.613281 L 84.09375 68.253906 " fill-opacity="1" fill-rule="nonzero"/><path fill="#51ade5" d="M 101.546875 70.84375 L 97.148438 70.84375 L 97.148438 66.433594 L 101.546875 66.433594 L 101.546875 70.84375 " fill-opacity="1" fill-rule="nonzero"/><path fill="#3871c1" d="M 77.789062 76.070312 L 73.390625 76.070312 L 73.390625 71.660156 L 77.789062 71.660156 L 77.789062 76.070312 " fill-opacity="1" fill-rule="nonzero"/><path fill="#3871c1" d="M 93.8125 75.25 L 89.414062 75.25 L 89.414062 70.84375 L 93.8125 70.84375 L 93.8125 75.25 " fill-opacity="1" fill-rule="nonzero"/><path fill="#51ade5" d="M 91.996094 55.675781 L 87.597656 55.675781 L 87.597656 51.269531 L 91.996094 51.269531 L 91.996094 55.675781 " fill-opacity="1" fill-rule="nonzero"/><path fill="#51ade5" d="M 87.339844 81.65625 L 82.941406 81.65625 L 82.941406 77.25 L 87.339844 77.25 L 87.339844 81.65625 " fill-opacity="1" fill-rule="nonzero"/><path fill="#3871c1" d="M 108.449219 66.433594 L 103.101562 66.433594 L 103.101562 61.074219 L 108.449219 61.074219 L 108.449219 66.433594 " fill-opacity="1" fill-rule="nonzero"/><path fill="#3871c1" d="M 120.964844 75.167969 L 115.617188 75.167969 L 115.617188 69.808594 L 120.964844 69.808594 L 120.964844 75.167969 " fill-opacity="1" fill-rule="nonzero"/><path fill="#3871c1" d="M 80.460938 60.277344 L 75.117188 60.277344 L 75.117188 54.917969 L 80.460938 54.917969 L 80.460938 60.277344 " fill-opacity="1" fill-rule="nonzero"/><path fill="#3871c1" d="M 144.996094 111.878906 C 145.21875 111.410156 145.464844 110.949219 145.671875 110.46875 C 145.878906 109.984375 146.085938 109.5 146.296875 109.007812 C 146.398438 108.765625 146.503906 108.519531 146.609375 108.273438 C 146.699219 108.019531 146.792969 107.769531 146.886719 107.519531 C 147.074219 107.011719 147.261719 106.503906 147.449219 105.992188 C 147.628906 105.476562 147.78125 104.949219 147.945312 104.425781 C 148.105469 103.898438 148.289062 103.375 148.414062 102.832031 C 148.554688 102.292969 148.691406 101.75 148.832031 101.207031 L 148.933594 100.796875 L 149.019531 100.382812 C 149.078125 100.105469 149.132812 99.832031 149.1875 99.550781 C 149.660156 97.332031 149.9375 95.039062 150.117188 92.710938 C 150.148438 92.128906 150.175781 91.542969 150.207031 90.957031 C 150.226562 90.664062 150.226562 90.371094 150.226562 90.074219 L 150.230469 89.191406 C 150.253906 88.007812 150.167969 86.824219 150.113281 85.632812 C 149.769531 80.882812 148.792969 76.09375 147.144531 71.535156 L 146.839844 70.679688 C 146.730469 70.398438 146.613281 70.117188 146.5 69.835938 C 146.269531 69.277344 146.042969 68.714844 145.804688 68.160156 C 145.289062 67.066406 144.804688 65.957031 144.21875 64.898438 L 143.796875 64.097656 C 143.65625 63.832031 143.515625 63.566406 143.355469 63.308594 C 143.050781 62.792969 142.742188 62.273438 142.433594 61.757812 C 142.132812 61.238281 141.78125 60.75 141.457031 60.25 C 141.125 59.75 140.800781 59.246094 140.4375 58.773438 C 140.085938 58.292969 139.730469 57.816406 139.378906 57.335938 C 139.015625 56.867188 138.632812 56.414062 138.261719 55.957031 L 137.699219 55.273438 C 137.507812 55.046875 137.308594 54.832031 137.109375 54.613281 C 136.714844 54.179688 136.320312 53.746094 135.929688 53.3125 C 135.519531 52.894531 135.105469 52.488281 134.695312 52.078125 C 134.488281 51.875 134.28125 51.667969 134.078125 51.464844 C 133.867188 51.265625 133.652344 51.078125 133.4375 50.882812 C 133.011719 50.496094 132.582031 50.113281 132.160156 49.730469 C 131.726562 49.359375 131.277344 49.007812 130.839844 48.648438 C 129.972656 47.917969 129.050781 47.277344 128.152344 46.621094 C 127.710938 46.285156 127.234375 46.003906 126.777344 45.695312 C 126.316406 45.398438 125.863281 45.09375 125.402344 44.808594 C 124.929688 44.535156 124.464844 44.265625 124 43.996094 C 123.535156 43.726562 123.074219 43.453125 122.597656 43.21875 C 121.648438 42.738281 120.730469 42.234375 119.773438 41.832031 C 116.003906 40.121094 112.242188 38.960938 108.714844 38.25 C 105.183594 37.535156 101.886719 37.28125 98.976562 37.265625 C 98.613281 37.265625 98.257812 37.261719 97.90625 37.261719 C 97.554688 37.257812 97.207031 37.285156 96.867188 37.296875 C 96.191406 37.332031 95.535156 37.347656 94.910156 37.402344 C 93.660156 37.523438 92.511719 37.621094 91.484375 37.792969 C 90.972656 37.871094 90.488281 37.945312 90.03125 38.015625 C 89.574219 38.105469 89.152344 38.195312 88.753906 38.273438 C 88.359375 38.355469 87.996094 38.429688 87.660156 38.5 C 87.328125 38.574219 87.03125 38.660156 86.761719 38.726562 C 85.6875 39.003906 85.113281 39.15625 85.113281 39.15625 C 85.113281 39.15625 85.699219 39.054688 86.789062 38.871094 C 87.0625 38.824219 87.367188 38.765625 87.703125 38.71875 C 88.039062 38.675781 88.410156 38.628906 88.804688 38.582031 C 89.203125 38.53125 89.628906 38.476562 90.085938 38.421875 C 90.542969 38.386719 91.03125 38.34375 91.542969 38.304688 C 92.566406 38.199219 93.707031 38.1875 94.945312 38.144531 C 95.5625 38.136719 96.207031 38.160156 96.875 38.164062 C 97.207031 38.175781 97.546875 38.167969 97.894531 38.1875 C 98.238281 38.210938 98.589844 38.230469 98.945312 38.25 C 101.792969 38.425781 104.992188 38.863281 108.386719 39.707031 C 111.78125 40.550781 115.367188 41.816406 118.941406 43.585938 C 119.847656 44.003906 120.71875 44.519531 121.617188 45.003906 C 122.070312 45.242188 122.5 45.519531 122.941406 45.792969 C 123.378906 46.0625 123.820312 46.335938 124.265625 46.609375 C 124.703125 46.894531 125.128906 47.203125 125.5625 47.5 C 125.992188 47.804688 126.445312 48.085938 126.859375 48.417969 C 127.703125 49.070312 128.574219 49.699219 129.386719 50.417969 C 129.800781 50.769531 130.222656 51.113281 130.628906 51.476562 C 131.027344 51.851562 131.429688 52.226562 131.832031 52.601562 C 132.03125 52.789062 132.234375 52.972656 132.433594 53.167969 C 132.625 53.367188 132.816406 53.5625 133.007812 53.761719 C 133.394531 54.164062 133.777344 54.5625 134.164062 54.964844 C 134.535156 55.382812 134.902344 55.800781 135.273438 56.222656 C 135.457031 56.433594 135.644531 56.640625 135.824219 56.859375 L 136.351562 57.519531 C 136.699219 57.960938 137.058594 58.398438 137.398438 58.847656 C 137.730469 59.308594 138.0625 59.765625 138.394531 60.226562 C 138.734375 60.683594 139.039062 61.164062 139.347656 61.640625 C 139.652344 62.125 139.984375 62.589844 140.269531 63.085938 C 140.554688 63.582031 140.84375 64.074219 141.132812 64.570312 C 141.28125 64.816406 141.417969 65.066406 141.550781 65.324219 L 141.949219 66.085938 C 142.5 67.09375 142.957031 68.152344 143.445312 69.195312 C 143.667969 69.726562 143.882812 70.261719 144.101562 70.792969 C 144.207031 71.0625 144.320312 71.328125 144.421875 71.597656 L 144.707031 72.410156 C 146.292969 76.742188 147.222656 81.296875 147.609375 85.820312 C 147.667969 86.953125 147.765625 88.082031 147.753906 89.207031 L 147.765625 90.050781 C 147.769531 90.332031 147.773438 90.613281 147.757812 90.894531 C 147.738281 91.453125 147.71875 92.011719 147.699219 92.566406 C 147.570312 94.789062 147.347656 96.988281 146.933594 99.117188 C 146.886719 99.386719 146.839844 99.652344 146.789062 99.917969 L 146.71875 100.316406 L 146.625 100.707031 C 146.503906 101.234375 146.386719 101.753906 146.265625 102.273438 C 146.15625 102.796875 145.992188 103.300781 145.855469 103.808594 C 145.707031 104.316406 145.578125 104.828125 145.417969 105.324219 C 145.25 105.820312 145.085938 106.3125 144.921875 106.804688 C 144.839844 107.046875 144.753906 107.292969 144.671875 107.535156 C 144.578125 107.777344 144.484375 108.015625 144.394531 108.25 C 144.207031 108.726562 144.023438 109.203125 143.839844 109.671875 C 143.652344 110.140625 143.433594 110.59375 143.234375 111.050781 C 141.601562 114.691406 139.648438 117.941406 137.578125 120.753906 C 135.507812 123.570312 133.324219 125.953125 131.242188 127.90625 C 129.15625 129.855469 127.203125 131.425781 125.507812 132.597656 C 125.085938 132.890625 124.695312 133.183594 124.308594 133.433594 C 123.921875 133.679688 123.558594 133.914062 123.222656 134.132812 C 122.882812 134.347656 122.578125 134.554688 122.285156 134.730469 C 121.988281 134.898438 121.722656 135.054688 121.484375 135.191406 C 121.003906 135.472656 120.636719 135.683594 120.390625 135.828125 C 120.265625 135.902344 120.171875 135.953125 120.105469 135.988281 C 120.042969 136.019531 120.007812 136.039062 120.007812 136.039062 C 120.007812 136.039062 120.042969 136.023438 120.109375 135.996094 C 120.175781 135.96875 120.277344 135.925781 120.40625 135.863281 C 120.664062 135.742188 121.050781 135.558594 121.554688 135.324219 C 121.804688 135.203125 122.085938 135.070312 122.390625 134.921875 C 122.699219 134.773438 123.023438 134.589844 123.382812 134.402344 C 123.734375 134.210938 124.117188 134.003906 124.527344 133.785156 C 124.933594 133.5625 125.34375 133.296875 125.792969 133.027344 C 127.578125 131.960938 129.671875 130.523438 131.902344 128.648438 C 134.132812 126.78125 136.507812 124.472656 138.765625 121.671875 C 141.023438 118.875 143.179688 115.601562 144.996094 111.878906 " fill-opacity="1" fill-rule="nonzero"/><path fill="#3871c1" d="M 132.078125 123.238281 C 132.242188 123.0625 132.410156 122.890625 132.574219 122.714844 C 132.90625 122.367188 133.242188 122.011719 133.578125 121.660156 C 133.914062 121.304688 134.21875 120.917969 134.546875 120.546875 C 134.863281 120.167969 135.199219 119.800781 135.503906 119.402344 C 135.808594 119.007812 136.117188 118.609375 136.421875 118.207031 C 136.578125 118.007812 136.730469 117.804688 136.882812 117.601562 C 137.027344 117.394531 137.171875 117.183594 137.316406 116.972656 C 137.609375 116.550781 137.898438 116.128906 138.191406 115.707031 C 138.476562 115.273438 138.738281 114.828125 139.011719 114.386719 C 139.574219 113.507812 140.058594 112.578125 140.566406 111.648438 C 140.832031 111.191406 141.042969 110.699219 141.277344 110.222656 C 141.503906 109.742188 141.753906 109.269531 141.960938 108.773438 C 142.371094 107.78125 142.816406 106.792969 143.160156 105.765625 C 143.335938 105.253906 143.542969 104.746094 143.695312 104.222656 C 143.855469 103.703125 144.011719 103.175781 144.171875 102.652344 C 144.757812 100.542969 145.253906 98.382812 145.535156 96.179688 L 145.65625 95.355469 C 145.695312 95.082031 145.710938 94.804688 145.738281 94.527344 L 145.894531 92.867188 L 145.972656 91.199219 C 145.980469 90.921875 146.003906 90.640625 146 90.363281 L 146 89.527344 C 146.007812 85.070312 145.351562 80.625 144.164062 76.40625 C 143.84375 75.359375 143.542969 74.3125 143.15625 73.296875 L 142.878906 72.53125 L 142.738281 72.152344 L 142.582031 71.777344 C 142.375 71.28125 142.167969 70.78125 141.960938 70.289062 C 141.074219 68.335938 140.128906 66.433594 139.023438 64.667969 C 136.878906 61.097656 134.292969 57.972656 131.5625 55.328125 C 128.832031 52.675781 125.941406 50.511719 123.109375 48.8125 C 120.277344 47.101562 117.507812 45.859375 115 44.945312 C 114.6875 44.832031 114.378906 44.714844 114.078125 44.605469 C 113.769531 44.507812 113.464844 44.410156 113.167969 44.320312 C 112.570312 44.140625 112.003906 43.941406 111.445312 43.800781 C 110.324219 43.519531 109.304688 43.242188 108.363281 43.082031 C 107.894531 42.988281 107.453125 42.898438 107.035156 42.816406 C 106.617188 42.757812 106.222656 42.703125 105.855469 42.648438 C 105.488281 42.597656 105.148438 42.550781 104.839844 42.507812 C 104.527344 42.464844 104.242188 42.453125 103.988281 42.425781 C 102.976562 42.339844 102.433594 42.292969 102.433594 42.292969 C 102.433594 42.292969 102.96875 42.390625 103.96875 42.570312 C 104.21875 42.617188 104.5 42.65625 104.804688 42.726562 C 105.105469 42.796875 105.4375 42.875 105.796875 42.957031 C 106.15625 43.039062 106.539062 43.125 106.949219 43.21875 C 107.355469 43.332031 107.789062 43.453125 108.242188 43.578125 C 109.160156 43.804688 110.144531 44.160156 111.222656 44.511719 C 111.761719 44.691406 112.304688 44.921875 112.878906 45.136719 C 113.164062 45.246094 113.453125 45.359375 113.75 45.472656 C 114.039062 45.601562 114.335938 45.730469 114.632812 45.863281 C 117.03125 46.90625 119.644531 48.285156 122.308594 50.070312 C 124.96875 51.855469 127.660156 54.0625 130.1875 56.695312 C 132.714844 59.332031 135.089844 62.386719 137.054688 65.835938 C 138.074219 67.539062 138.933594 69.367188 139.742188 71.238281 C 139.929688 71.714844 140.117188 72.1875 140.304688 72.667969 L 140.449219 73.023438 L 140.574219 73.386719 L 140.824219 74.117188 C 141.183594 75.085938 141.449219 76.085938 141.75 77.082031 C 142.820312 81.097656 143.433594 85.308594 143.410156 89.53125 L 143.417969 90.320312 C 143.417969 90.585938 143.398438 90.847656 143.390625 91.113281 L 143.324219 92.691406 L 143.179688 94.265625 C 143.152344 94.527344 143.140625 94.792969 143.101562 95.050781 L 142.996094 95.832031 C 142.738281 97.917969 142.28125 99.96875 141.753906 101.976562 C 141.609375 102.476562 141.460938 102.972656 141.316406 103.46875 C 141.179688 103.96875 140.988281 104.449219 140.828125 104.9375 C 140.515625 105.921875 140.109375 106.863281 139.738281 107.8125 C 139.554688 108.289062 139.320312 108.742188 139.117188 109.207031 C 138.902344 109.664062 138.710938 110.132812 138.46875 110.574219 C 138.003906 111.46875 137.5625 112.363281 137.039062 113.210938 C 136.785156 113.636719 136.546875 114.070312 136.285156 114.488281 C 136.019531 114.902344 135.75 115.3125 135.484375 115.71875 C 135.351562 115.925781 135.21875 116.128906 135.085938 116.332031 C 134.945312 116.53125 134.804688 116.726562 134.660156 116.921875 C 134.378906 117.3125 134.097656 117.703125 133.816406 118.089844 C 133.535156 118.476562 133.226562 118.839844 132.933594 119.210938 C 132.632812 119.578125 132.351562 119.957031 132.042969 120.304688 C 131.730469 120.65625 131.421875 121.003906 131.117188 121.351562 C 130.964844 121.523438 130.808594 121.695312 130.65625 121.867188 C 130.496094 122.03125 130.335938 122.195312 130.175781 122.359375 C 127.648438 124.992188 124.957031 127.195312 122.300781 128.984375 C 119.644531 130.769531 117.023438 132.144531 114.625 133.183594 C 114.03125 133.460938 113.4375 133.679688 112.867188 133.90625 C 112.582031 134.015625 112.304688 134.125 112.027344 134.234375 C 111.753906 134.347656 111.476562 134.425781 111.207031 134.519531 C 110.671875 134.703125 110.15625 134.878906 109.660156 135.046875 C 109.160156 135.191406 108.683594 135.328125 108.230469 135.460938 C 106.410156 135.964844 104.957031 136.285156 103.957031 136.464844 C 103.457031 136.5625 103.074219 136.648438 102.816406 136.679688 C 102.554688 136.71875 102.421875 136.738281 102.421875 136.738281 C 102.421875 136.738281 102.558594 136.730469 102.820312 136.71875 C 103.082031 136.710938 103.46875 136.664062 103.976562 136.613281 C 104.992188 136.515625 106.480469 136.34375 108.351562 135.960938 C 108.816406 135.863281 109.3125 135.761719 109.828125 135.652344 C 110.339844 135.519531 110.875 135.382812 111.429688 135.238281 C 111.710938 135.160156 111.996094 135.097656 112.28125 135.003906 C 112.570312 134.914062 112.859375 134.820312 113.15625 134.726562 C 113.75 134.539062 114.371094 134.351562 114.992188 134.105469 C 117.503906 133.199219 120.273438 131.957031 123.105469 130.25 C 125.9375 128.546875 128.828125 126.382812 131.5625 123.730469 C 131.734375 123.566406 131.90625 123.402344 132.078125 123.238281 " fill-opacity="1" fill-rule="nonzero"/><path fill="#3871c1" d="M 113.851562 130.757812 C 116.191406 129.832031 118.476562 128.703125 120.644531 127.363281 C 122.8125 126.019531 124.867188 124.488281 126.78125 122.789062 C 128.6875 121.082031 130.460938 119.226562 132.035156 117.222656 C 133.605469 115.214844 135.003906 113.082031 136.210938 110.867188 C 137.429688 108.664062 138.410156 106.359375 139.195312 104.023438 C 139.976562 101.6875 140.570312 99.320312 140.949219 96.960938 C 141.316406 94.597656 141.484375 92.25 141.484375 89.953125 C 141.496094 87.652344 141.265625 85.410156 140.933594 83.25 C 140.890625 82.980469 140.84375 82.714844 140.800781 82.445312 C 140.757812 82.179688 140.714844 81.910156 140.652344 81.648438 C 140.539062 81.125 140.425781 80.601562 140.316406 80.082031 C 140.199219 79.566406 140.046875 79.0625 139.917969 78.554688 C 139.847656 78.304688 139.78125 78.054688 139.714844 77.804688 C 139.636719 77.558594 139.554688 77.3125 139.476562 77.070312 C 138.886719 75.105469 138.117188 73.273438 137.328125 71.550781 C 135.691406 68.128906 133.777344 65.210938 131.839844 62.839844 C 129.910156 60.460938 127.976562 58.613281 126.292969 57.21875 C 126.082031 57.042969 125.890625 56.859375 125.683594 56.703125 C 125.480469 56.546875 125.28125 56.390625 125.085938 56.242188 C 124.699219 55.945312 124.34375 55.664062 124 55.414062 C 123.304688 54.933594 122.710938 54.523438 122.226562 54.191406 C 121.230469 53.582031 120.699219 53.257812 120.699219 53.257812 C 120.699219 53.257812 121.199219 53.625 122.140625 54.3125 C 122.59375 54.675781 123.152344 55.128906 123.808594 55.65625 C 124.128906 55.933594 124.460938 56.238281 124.824219 56.558594 C 125.003906 56.71875 125.191406 56.882812 125.382812 57.050781 C 125.574219 57.21875 125.753906 57.414062 125.949219 57.597656 C 127.523438 59.082031 129.289062 61.027344 131.0625 63.441406 C 132.824219 65.859375 134.527344 68.792969 135.964844 72.160156 C 136.65625 73.855469 137.324219 75.648438 137.820312 77.554688 C 137.886719 77.792969 137.957031 78.03125 138.023438 78.269531 C 138.078125 78.511719 138.132812 78.753906 138.191406 79 C 138.296875 79.488281 138.425781 79.976562 138.519531 80.476562 C 138.613281 80.976562 138.703125 81.480469 138.792969 81.988281 C 138.847656 82.238281 138.875 82.496094 138.910156 82.753906 C 138.945312 83.011719 138.976562 83.269531 139.011719 83.527344 C 139.265625 85.601562 139.421875 87.746094 139.351562 89.933594 C 139.296875 92.121094 139.082031 94.347656 138.691406 96.578125 C 138.292969 98.808594 137.6875 101.039062 136.914062 103.234375 C 136.132812 105.429688 135.179688 107.589844 134.011719 109.664062 C 132.847656 111.738281 131.515625 113.742188 130.027344 115.628906 C 128.535156 117.511719 126.859375 119.253906 125.0625 120.855469 C 123.265625 122.460938 121.332031 123.90625 119.296875 125.179688 C 117.257812 126.449219 115.113281 127.527344 112.914062 128.429688 C 110.714844 129.324219 108.457031 130.03125 106.183594 130.558594 C 103.914062 131.089844 101.617188 131.390625 99.355469 131.53125 C 99.074219 131.550781 98.789062 131.570312 98.507812 131.585938 C 98.226562 131.605469 97.945312 131.597656 97.664062 131.605469 C 97.382812 131.609375 97.101562 131.613281 96.820312 131.621094 C 96.542969 131.628906 96.261719 131.628906 95.984375 131.617188 C 95.425781 131.597656 94.871094 131.582031 94.320312 131.5625 C 93.769531 131.519531 93.222656 131.476562 92.679688 131.433594 C 90.503906 131.214844 88.386719 130.863281 86.363281 130.363281 C 85.855469 130.238281 85.363281 130.085938 84.863281 129.953125 C 84.617188 129.882812 84.367188 129.820312 84.125 129.742188 C 83.882812 129.664062 83.640625 129.582031 83.402344 129.5 C 82.921875 129.335938 82.433594 129.195312 81.972656 129.015625 C 81.503906 128.832031 81.042969 128.652344 80.582031 128.476562 C 78.765625 127.71875 77.039062 126.90625 75.453125 125.980469 C 73.84375 125.09375 72.375 124.113281 71.027344 123.121094 C 69.679688 122.121094 68.457031 121.105469 67.351562 120.09375 C 65.167969 118.050781 63.433594 116.074219 62.136719 114.347656 C 60.839844 112.617188 59.914062 111.183594 59.328125 110.179688 C 59.019531 109.683594 58.816406 109.285156 58.664062 109.027344 C 58.511719 108.765625 58.4375 108.628906 58.4375 108.628906 C 58.4375 108.628906 58.503906 108.769531 58.628906 109.042969 C 58.757812 109.316406 58.929688 109.730469 59.195312 110.25 C 59.710938 111.296875 60.515625 112.816406 61.714844 114.644531 C 62.910156 116.476562 64.527344 118.601562 66.660156 120.804688 C 67.730469 121.898438 68.929688 123.011719 70.261719 124.105469 C 71.59375 125.199219 73.0625 126.28125 74.683594 127.269531 C 76.28125 128.296875 78.039062 129.214844 79.898438 130.070312 C 80.371094 130.273438 80.84375 130.476562 81.324219 130.683594 C 81.800781 130.890625 82.300781 131.054688 82.796875 131.246094 C 83.042969 131.335938 83.292969 131.429688 83.542969 131.523438 C 83.796875 131.613281 84.054688 131.683594 84.308594 131.765625 C 84.824219 131.925781 85.335938 132.101562 85.863281 132.246094 C 87.964844 132.835938 90.171875 133.273438 92.449219 133.558594 C 93.019531 133.621094 93.59375 133.679688 94.171875 133.742188 C 94.753906 133.773438 95.335938 133.804688 95.921875 133.835938 C 96.214844 133.859375 96.507812 133.863281 96.804688 133.859375 C 97.097656 133.863281 97.394531 133.863281 97.691406 133.867188 C 97.988281 133.863281 98.285156 133.875 98.582031 133.863281 C 98.878906 133.851562 99.175781 133.839844 99.476562 133.824219 C 101.863281 133.71875 104.289062 133.441406 106.703125 132.925781 C 109.113281 132.410156 111.511719 131.6875 113.851562 130.757812 " fill-opacity="1" fill-rule="nonzero"/><g clip-path="url(#47e32211c5)"><path fill="#00adef" d="M 84.464844 141.316406 C 55.105469 132.382812 38.546875 101.335938 47.476562 71.976562 C 56.40625 42.613281 87.445312 26.050781 116.804688 34.980469 C 132.929688 39.886719 145.191406 51.464844 151.492188 65.769531 C 145.226562 48.472656 131.175781 34.234375 112.222656 28.46875 C 80.277344 18.746094 46.5 36.769531 36.78125 68.722656 C 27.0625 100.671875 45.082031 134.453125 77.027344 144.171875 C 95.984375 149.941406 115.582031 145.941406 130.417969 135.0625 C 117.21875 143.433594 100.585938 146.21875 84.464844 141.316406 " fill-opacity="1" fill-rule="nonzero"/></g><g fill="#3871c1" fill-opacity="1"><g transform="translate(18.860304, 171.366264)"><g><path d="M 6 -8.046875 L 6 -3.03125 L 14.75 -3.03125 L 14.75 0 L 2.375 0 L 2.375 -18.328125 L 14.546875 -18.328125 L 14.546875 -15.296875 L 6 -15.296875 L 6 -11 L 13.46875 -11 L 13.46875 -8.046875 Z M 6 -8.046875 "/></g></g></g><g fill="#3871c1" fill-opacity="1"><g transform="translate(34.616197, 171.366264)"><g><path d="M 8.78125 -7.375 L 1.09375 -7.375 L 1.09375 -10.421875 L 8.78125 -10.421875 Z M 8.78125 -7.375 "/></g></g></g><g fill="#3871c1" fill-opacity="1"><g transform="translate(44.505933, 171.366264)"><g><path d="M 6.421875 0.265625 C 4.867188 0.265625 3.578125 -0.0234375 2.546875 -0.609375 C 1.515625 -1.203125 0.765625 -2 0.296875 -3 L 2.34375 -5.484375 L 2.65625 -5.484375 C 2.988281 -4.679688 3.460938 -4.046875 4.078125 -3.578125 C 4.691406 -3.117188 5.40625 -2.890625 6.21875 -2.890625 C 7.125 -2.890625 7.796875 -3.148438 8.234375 -3.671875 C 8.679688 -4.203125 8.90625 -5.066406 8.90625 -6.265625 L 8.90625 -18.328125 L 12.515625 -18.328125 L 12.515625 -6.203125 C 12.515625 -3.992188 12.007812 -2.363281 11 -1.3125 C 10 -0.257812 8.472656 0.265625 6.421875 0.265625 Z M 6.421875 0.265625 "/></g></g></g><g fill="#3871c1" fill-opacity="1"><g transform="translate(59.296667, 171.366264)"><g><path d="M 9.984375 0.265625 C 8.304688 0.265625 6.828125 -0.078125 5.546875 -0.765625 C 4.265625 -1.453125 3.257812 -2.5 2.53125 -3.90625 C 1.800781 -5.3125 1.4375 -7.0625 1.4375 -9.15625 C 1.4375 -11.257812 1.800781 -13.015625 2.53125 -14.421875 C 3.257812 -15.828125 4.265625 -16.875 5.546875 -17.5625 C 6.828125 -18.25 8.304688 -18.59375 9.984375 -18.59375 C 11.671875 -18.59375 13.148438 -18.25 14.421875 -17.5625 C 15.703125 -16.882812 16.703125 -15.835938 17.421875 -14.421875 C 18.148438 -13.015625 18.515625 -11.257812 18.515625 -9.15625 C 18.515625 -7.0625 18.148438 -5.304688 17.421875 -3.890625 C 16.703125 -2.484375 15.703125 -1.4375 14.421875 -0.75 C 13.148438 -0.0703125 11.671875 0.265625 9.984375 0.265625 Z M 9.984375 -2.890625 C 11.546875 -2.890625 12.734375 -3.382812 13.546875 -4.375 C 14.367188 -5.375 14.78125 -6.96875 14.78125 -9.15625 C 14.78125 -11.351562 14.367188 -12.953125 13.546875 -13.953125 C 12.734375 -14.953125 11.546875 -15.453125 9.984375 -15.453125 C 8.421875 -15.453125 7.226562 -14.953125 6.40625 -13.953125 C 5.582031 -12.953125 5.171875 -11.351562 5.171875 -9.15625 C 5.171875 -6.96875 5.582031 -5.375 6.40625 -4.375 C 7.226562 -3.382812 8.421875 -2.890625 9.984375 -2.890625 Z M 9.984375 -2.890625 "/></g></g></g><g fill="#3871c1" fill-opacity="1"><g transform="translate(79.264158, 171.366264)"><g><path d="M 9.71875 0.265625 C 7.1875 0.265625 5.3125 -0.332031 4.09375 -1.53125 C 2.875 -2.726562 2.265625 -4.507812 2.265625 -6.875 L 2.265625 -18.328125 L 5.8125 -18.328125 L 5.8125 -6.890625 C 5.8125 -5.554688 6.132812 -4.554688 6.78125 -3.890625 C 7.425781 -3.222656 8.40625 -2.890625 9.71875 -2.890625 C 12.3125 -2.890625 13.609375 -4.222656 13.609375 -6.890625 L 13.609375 -18.328125 L 17.15625 -18.328125 L 17.15625 -6.875 C 17.15625 -4.507812 16.546875 -2.726562 15.328125 -1.53125 C 14.109375 -0.332031 12.238281 0.265625 9.71875 0.265625 Z M 9.71875 0.265625 "/></g></g></g><g fill="#3871c1" fill-opacity="1"><g transform="translate(98.692665, 171.366264)"><g><path d="M 2.375 0 L 2.375 -18.328125 L 9.734375 -18.328125 C 11.628906 -18.328125 13.0625 -17.890625 14.03125 -17.015625 C 15 -16.140625 15.484375 -14.9375 15.484375 -13.40625 C 15.484375 -12.289062 15.195312 -11.378906 14.625 -10.671875 C 14.0625 -9.960938 13.222656 -9.414062 12.109375 -9.03125 L 12.109375 -8.78125 C 12.679688 -8.53125 13.144531 -8.15625 13.5 -7.65625 C 13.863281 -7.164062 14.203125 -6.4375 14.515625 -5.46875 L 16.34375 0 L 12.625 0 L 10.828125 -5.484375 C 10.640625 -6.035156 10.429688 -6.460938 10.203125 -6.765625 C 9.972656 -7.066406 9.679688 -7.285156 9.328125 -7.421875 C 8.972656 -7.566406 8.515625 -7.640625 7.953125 -7.640625 L 6 -7.640625 L 6 0 Z M 9.296875 -10.5 C 11.054688 -10.5 11.9375 -11.320312 11.9375 -12.96875 C 11.9375 -14.625 11.054688 -15.453125 9.296875 -15.453125 L 6 -15.453125 L 6 -10.5 Z M 9.296875 -10.5 "/></g></g></g><g fill="#3871c1" fill-opacity="1"><g transform="translate(115.827355, 171.366264)"><g><path d="M 5.890625 0 L 2.375 0 L 2.375 -18.328125 L 6.53125 -18.328125 L 13.890625 -6.515625 L 14.21875 -6.5625 L 14.21875 -18.328125 L 17.703125 -18.328125 L 17.703125 0 L 13.984375 0 L 6.203125 -12.609375 L 5.890625 -12.5625 Z M 5.890625 0 "/></g></g></g><g fill="#3871c1" fill-opacity="1"><g transform="translate(135.920192, 171.366264)"><g><path d="M 17.59375 0 L 13.78125 0 L 12.390625 -4.21875 L 5.375 -4.21875 L 4 0 L 0.28125 0 L 6.609375 -18.328125 L 11.25 -18.328125 Z M 8.71875 -14.5 L 6.359375 -7.265625 L 11.390625 -7.265625 L 9.03125 -14.5 Z M 8.71875 -14.5 "/></g></g></g><g fill="#3871c1" fill-opacity="1"><g transform="translate(153.781884, 171.366264)"><g><path d="M 6 -18.328125 L 6 -3.03125 L 14.234375 -3.03125 L 14.234375 0 L 2.375 0 L 2.375 -18.328125 Z M 6 -18.328125 "/></g></g></g></svg>